# xmcd
#
# Track frame offsets:
#	150
#	17432
#	35438
#	55337
#	72662
#	92613
#	113521
#	137219
#	161221
#	186127
#	201546
#
# Disc length: 3063 seconds
#
# Revision: 0
# Processed by: cddbd v1.5.2PL0 Copyright (c) Steve Scherf et al.
# Submitted via: EZCDAudioConverter 1.3.4.1
#
DISCID=9c0bf50b
DTITLE=Okkervil River - I Am Very Far
DYEAR=1900
DGENRE=
TTITLE0=The Valley
TTITLE1=Piratess
TTITLE2=Rider
TTITLE3=Lay Of The Last Survivor
TTITLE4=White Shadow Waltz
TTITLE5=We Need A Myth
TTITLE6=Hanging From A Hit
TTITLE7=Show Yourself
TTITLE8=Your Past Life As A Blast
TTITLE9=Wake And Be Fine
TTITLE10=The Rise
EXTD=
EXTT0=
EXTT1=
EXTT2=
EXTT3=
EXTT4=
EXTT5=
EXTT6=
EXTT7=
EXTT8=
EXTT9=
EXTT10=
PLAYORDER=
